<svg xmlns="http://www.w3.org/2000/svg" width="512" height="512" viewBox="0 0 512 512">
  <rect width="512" height="512" rx="112" fill="#b65f45"/>
  <!-- label tag -->
  <g transform="translate(256 256)">
    <rect x="-150" y="-104" width="300" height="208" rx="28" fill="#fffdf9"/>
    <circle cx="-104" cy="0" r="20" fill="#b65f45"/>
    <!-- text lines -->
    <rect x="-58" y="-58" width="190" height="26" rx="13" fill="#26231f"/>
    <rect x="-58" y="-13" width="150" height="26" rx="13" fill="#6d655e"/>
    <!-- barcode -->
    <g fill="#26231f" transform="translate(-58 34)">
      <rect x="0"   y="0" width="10" height="44"/>
      <rect x="20"  y="0" width="6"  height="44"/>
      <rect x="36"  y="0" width="12" height="44"/>
      <rect x="58"  y="0" width="6"  height="44"/>
      <rect x="74"  y="0" width="14" height="44"/>
      <rect x="98"  y="0" width="6"  height="44"/>
      <rect x="114" y="0" width="10" height="44"/>
      <rect x="134" y="0" width="6"  height="44"/>
      <rect x="150" y="0" width="12" height="44"/>
      <rect x="172" y="0" width="6"  height="44"/>
    </g>
  </g>
</svg>
